<svg width="93" height="90" viewBox="0 0 93 90" fill="none" xmlns="http://www.w3.org/2000/svg">
<defs>
    <linearGradient id="grad" x1="0%" y1="0%" x2="100%" y2="100%">
      <stop offset="0%" style="stop-color:#8b5cf6;stop-opacity:1" />
      <stop offset="100%" style="stop-color:#3b82f6;stop-opacity:1" />
    </linearGradient>
  </defs>
  <path d="M92.4503 -0.38897C84.5215 -0.355405 76.5933 -0.299673 68.6649 -0.216353C64.9826 -0.178336 61.3006 -0.147695 57.6181 -0.134438C54.0582 -0.121341 50.4989 -0.088181 46.9392 -0.0416382C44.9336 -0.0204945 42.9279 -0.0196408 40.9222 -0.0192223C32.4455 0.1141 25.7569 1.07236 19.2151 6.74633C18.6983 7.40564 18.1815 8.06495 17.6491 8.74424C17.1143 9.40127 16.5794 10.0583 16.0283 10.7352C12.0463 16.8679 12.3127 22.8011 12.9236 29.8849C13.9834 33.6185 13.9834 33.6185 15.0192 35.8522C14.5156 36.1284 14.0121 36.4046 13.4933 36.6892C7.2239 40.3921 2.50909 45.0177 0.276601 52.0897C-0.326511 61.602 -0.482172 70.1822 5.69117 78.0065C11.9484 84.6866 19.8807 89.0416 28.8958 90.6376C33.5697 90.7171 38.2241 90.6053 42.8941 90.414C40.3906 89.2011 37.8798 88.0408 35.3371 86.9092C29.9393 83.9072 28.3559 78.9718 26.6811 73.2957C26.4996 67.8313 27.3264 62.4111 30.6666 57.9254C36.1676 52.7783 42.433 52.3241 49.6018 52.4896C54.262 52.1932 57.1566 51.7666 60.3139 48.318C62.8612 45.0597 64.964 41.5819 67.0605 38.0214C67.9167 36.9035 67.9167 36.9035 68.7902 35.763C69.9962 33.974 69.9962 33.974 69.9483 30.9744C69.0444 30.9638 68.1406 30.9531 67.2094 30.9422C63.8667 30.9006 60.5241 30.8547 57.1815 30.8059C55.7328 30.7857 54.2841 30.7671 52.8353 30.7503C50.757 30.7259 48.6788 30.6954 46.6005 30.6636C45.3485 30.6469 44.0965 30.6303 42.8065 30.6131C40.045 30.7739 40.045 30.7739 38.9203 29.4697C38.593 25.4428 38.5375 23.9162 40.7763 20.4389C43.6564 20.1784 46.339 20.1019 49.218 20.1439C50.9523 20.128 52.6866 20.11 54.4209 20.0901C57.1542 20.0731 59.8845 20.0708 62.6175 20.1069C77.8482 20.2662 77.8482 20.2662 82.6416 16.6219C84.6318 14.0575 86.1278 11.5778 87.5947 8.68973C88.5553 7.3278 89.5319 5.97681 90.5304 4.64233C92.4822 1.61078 92.4822 1.61078 92.4503 -0.38897Z" fill="url(#grad)"/>
</svg>